<svg xmlns="http://www.w3.org/2000/svg" xmlns:xlink="http://www.w3.org/1999/xlink" width="432" zoomAndPan="magnify" viewBox="0 0 285 291.749983" height="455" preserveAspectRatio="xMidYMid meet" version="1.0"><defs><clipPath id="e23becd2ef"><path d="M 117 159 L 170 159 L 170 290.75 L 117 290.75 Z M 117 159 " clip-rule="nonzero"/></clipPath><clipPath id="2a4c0d2097"><path d="M 61.414062 223 L 113 223 L 113 290.75 L 61.414062 290.75 Z M 61.414062 223 " clip-rule="nonzero"/></clipPath><clipPath id="4a7ec97e8c"><path d="M 233 223 L 284.722656 223 L 284.722656 290.75 L 233 290.75 Z M 233 223 " clip-rule="nonzero"/></clipPath><clipPath id="e0c93e6324"><path d="M 177.28125 101.792969 L 184.289062 101.792969 L 184.289062 289.789062 L 177.28125 289.789062 Z M 177.28125 101.792969 " clip-rule="nonzero"/></clipPath><clipPath id="3cde27b49a"><path d="M 184.289062 101.792969 L 191.300781 101.792969 L 191.300781 289.789062 L 184.289062 289.789062 Z M 184.289062 101.792969 " clip-rule="nonzero"/></clipPath><clipPath id="2556d018b1"><path d="M 191.300781 101.792969 L 198.308594 101.792969 L 198.308594 289.789062 L 191.300781 289.789062 Z M 191.300781 101.792969 " clip-rule="nonzero"/></clipPath><clipPath id="449be80102"><path d="M 198.308594 101.792969 L 205.316406 101.792969 L 205.316406 289.789062 L 198.308594 289.789062 Z M 198.308594 101.792969 " clip-rule="nonzero"/></clipPath><clipPath id="ec1ad86162"><path d="M 205.316406 101.792969 L 212.324219 101.792969 L 212.324219 289.789062 L 205.316406 289.789062 Z M 205.316406 101.792969 " clip-rule="nonzero"/></clipPath><clipPath id="1e17b5ea85"><path d="M 212.328125 101.792969 L 219.335938 101.792969 L 219.335938 289.789062 L 212.328125 289.789062 Z M 212.328125 101.792969 " clip-rule="nonzero"/></clipPath><clipPath id="97f8873f63"><path d="M 219.335938 101.792969 L 226.34375 101.792969 L 226.34375 289.789062 L 219.335938 289.789062 Z M 219.335938 101.792969 " clip-rule="nonzero"/></clipPath><clipPath id="14085fe4fc"><path d="M 176 100 L 228 100 L 228 290.75 L 176 290.75 Z M 176 100 " clip-rule="nonzero"/></clipPath><clipPath id="08de8ed15f"><path d="M 145 254 L 257 254 L 257 290.75 L 145 290.75 Z M 145 254 " clip-rule="nonzero"/></clipPath><clipPath id="b612520c3f"><path d="M 117 159 L 170 159 L 170 290.75 L 117 290.75 Z M 117 159 " clip-rule="nonzero"/></clipPath><clipPath id="70e0070cc4"><path d="M 61.414062 223 L 113 223 L 113 290.75 L 61.414062 290.75 Z M 61.414062 223 " clip-rule="nonzero"/></clipPath><clipPath id="e68a9e5489"><path d="M 233 223 L 284.722656 223 L 284.722656 290.75 L 233 290.75 Z M 233 223 " clip-rule="nonzero"/></clipPath><clipPath id="e4cd0bdaa3"><path d="M 177.28125 101.792969 L 184.289062 101.792969 L 184.289062 289.789062 L 177.28125 289.789062 Z M 177.28125 101.792969 " clip-rule="nonzero"/></clipPath><clipPath id="f58b7fc692"><path d="M 184.289062 101.792969 L 191.300781 101.792969 L 191.300781 289.789062 L 184.289062 289.789062 Z M 184.289062 101.792969 " clip-rule="nonzero"/></clipPath><clipPath id="daca384086"><path d="M 191.300781 101.792969 L 198.308594 101.792969 L 198.308594 289.789062 L 191.300781 289.789062 Z M 191.300781 101.792969 " clip-rule="nonzero"/></clipPath><clipPath id="97b5f807a0"><path d="M 198.308594 101.792969 L 205.316406 101.792969 L 205.316406 289.789062 L 198.308594 289.789062 Z M 198.308594 101.792969 " clip-rule="nonzero"/></clipPath><clipPath id="4f7c629034"><path d="M 205.316406 101.792969 L 212.324219 101.792969 L 212.324219 289.789062 L 205.316406 289.789062 Z M 205.316406 101.792969 " clip-rule="nonzero"/></clipPath><clipPath id="930b27b316"><path d="M 212.328125 101.792969 L 219.335938 101.792969 L 219.335938 289.789062 L 212.328125 289.789062 Z M 212.328125 101.792969 " clip-rule="nonzero"/></clipPath><clipPath id="0b5c6313c6"><path d="M 219.335938 101.792969 L 226.34375 101.792969 L 226.34375 289.789062 L 219.335938 289.789062 Z M 219.335938 101.792969 " clip-rule="nonzero"/></clipPath><clipPath id="0afdd2252a"><path d="M 176 100 L 228 100 L 228 290.75 L 176 290.75 Z M 176 100 " clip-rule="nonzero"/></clipPath><clipPath id="a6a53285d7"><path d="M 145 254 L 257 254 L 257 290.75 L 145 290.75 Z M 145 254 " clip-rule="nonzero"/></clipPath><clipPath id="d570288e75"><path d="M 0.121094 224 L 50 224 L 50 290 L 0.121094 290 Z M 0.121094 224 " clip-rule="nonzero"/></clipPath><clipPath id="0725a53fd1"><path d="M 0.121094 223 L 51 223 L 51 290.648438 L 0.121094 290.648438 Z M 0.121094 223 " clip-rule="nonzero"/></clipPath></defs><path fill="#ffd33b" d="M 118.738281 164.957031 C 118.738281 161.714844 120.359375 160.09375 123.605469 160.09375 L 163.714844 160.09375 C 166.957031 160.09375 168.582031 161.714844 168.582031 164.957031 L 168.582031 289.789062 L 118.738281 289.789062 Z M 118.738281 164.957031 " fill-opacity="1" fill-rule="nonzero"/><g clip-path="url(#e23becd2ef)"><path fill="#000002" d="M 168.582031 290.636719 L 118.738281 290.636719 C 118.269531 290.636719 117.890625 290.257812 117.890625 289.789062 L 117.890625 164.957031 C 117.890625 161.222656 119.867188 159.25 123.605469 159.25 L 163.714844 159.25 C 167.453125 159.25 169.429688 161.222656 169.429688 164.957031 L 169.429688 289.789062 C 169.429688 290.257812 169.050781 290.636719 168.582031 290.636719 Z M 119.585938 288.941406 L 167.734375 288.941406 L 167.734375 164.957031 C 167.734375 162.179688 166.492188 160.941406 163.714844 160.941406 L 123.605469 160.941406 C 120.824219 160.941406 119.585938 162.179688 119.585938 164.957031 Z M 119.585938 288.941406 " fill-opacity="1" fill-rule="nonzero"/></g><path fill="#ffd33b" d="M 62.25 289.789062 L 62.25 228.738281 C 62.25 225.496094 63.875 223.878906 67.117188 223.878906 L 107.230469 223.878906 C 110.472656 223.878906 112.09375 225.496094 112.09375 228.738281 L 112.09375 289.789062 Z M 62.25 289.789062 " fill-opacity="1" fill-rule="nonzero"/><g clip-path="url(#2a4c0d2097)"><path fill="#000002" d="M 112.09375 290.636719 L 62.25 290.636719 C 61.78125 290.636719 61.402344 290.257812 61.402344 289.789062 L 61.402344 228.738281 C 61.402344 225.003906 63.378906 223.03125 67.117188 223.03125 L 107.230469 223.03125 C 110.96875 223.03125 112.945312 225.003906 112.945312 228.738281 L 112.945312 289.789062 C 112.945312 290.257812 112.5625 290.636719 112.09375 290.636719 Z M 63.101562 288.941406 L 111.246094 288.941406 L 111.246094 228.738281 C 111.246094 225.960938 110.007812 224.722656 107.230469 224.722656 L 67.121094 224.722656 C 64.339844 224.722656 63.101562 225.960938 63.101562 228.738281 Z M 63.101562 288.941406 " fill-opacity="1" fill-rule="nonzero"/></g><path fill="#ffd33b" d="M 234.042969 289.789062 L 234.042969 228.738281 C 234.042969 225.496094 235.664062 223.878906 238.90625 223.878906 L 279.019531 223.878906 C 282.261719 223.878906 283.886719 225.496094 283.886719 228.738281 L 283.886719 289.789062 Z M 234.042969 289.789062 " fill-opacity="1" fill-rule="nonzero"/><g clip-path="url(#4a7ec97e8c)"><path fill="#000002" d="M 283.886719 290.636719 L 234.042969 290.636719 C 233.574219 290.636719 233.195312 290.257812 233.195312 289.789062 L 233.195312 228.738281 C 233.195312 225.003906 235.167969 223.03125 238.90625 223.03125 L 279.019531 223.03125 C 282.757812 223.03125 284.730469 225.003906 284.730469 228.738281 L 284.730469 289.789062 C 284.734375 290.257812 284.351562 290.636719 283.886719 290.636719 Z M 234.890625 288.941406 L 283.039062 288.941406 L 283.039062 228.738281 C 283.039062 225.960938 281.796875 224.722656 279.019531 224.722656 L 238.90625 224.722656 C 236.128906 224.722656 234.890625 225.960938 234.890625 228.738281 Z M 234.890625 288.941406 " fill-opacity="1" fill-rule="nonzero"/></g><g clip-path="url(#e0c93e6324)"><path fill="#ff2373" d="M 177.28125 289.789062 L 177.28125 101.792969 L 184.289062 101.792969 L 184.289062 289.789062 Z M 177.28125 289.789062 " fill-opacity="1" fill-rule="nonzero"/></g><g clip-path="url(#3cde27b49a)"><path fill="#ff9900" d="M 184.289062 289.789062 L 184.289062 101.792969 L 191.300781 101.792969 L 191.300781 289.789062 Z M 184.289062 289.789062 " fill-opacity="1" fill-rule="nonzero"/></g><g clip-path="url(#2556d018b1)"><path fill="#ffd43b" d="M 191.300781 289.789062 L 191.300781 101.792969 L 198.308594 101.792969 L 198.308594 289.789062 Z M 191.300781 289.789062 " fill-opacity="1" fill-rule="nonzero"/></g><g clip-path="url(#449be80102)"><path fill="#00ce98" d="M 198.308594 289.789062 L 198.308594 101.792969 L 205.316406 101.792969 L 205.316406 289.789062 Z M 198.308594 289.789062 " fill-opacity="1" fill-rule="nonzero"/></g><g clip-path="url(#ec1ad86162)"><path fill="#00ccff" d="M 205.316406 289.789062 L 205.316406 101.792969 L 212.324219 101.792969 L 212.324219 289.789062 Z M 205.316406 289.789062 " fill-opacity="1" fill-rule="nonzero"/></g><g clip-path="url(#1e17b5ea85)"><path fill="#0066cc" d="M 212.328125 289.789062 L 212.328125 101.792969 L 219.335938 101.792969 L 219.335938 289.789062 Z M 212.328125 289.789062 " fill-opacity="1" fill-rule="nonzero"/></g><g clip-path="url(#97f8873f63)"><path fill="#9933cc" d="M 219.335938 289.789062 L 219.335938 101.792969 L 226.34375 101.792969 L 226.34375 289.789062 Z M 219.335938 289.789062 " fill-opacity="1" fill-rule="nonzero"/></g><g clip-path="url(#14085fe4fc)"><path fill="#000002" d="M 226.34375 290.636719 L 177.28125 290.636719 C 176.8125 290.636719 176.433594 290.257812 176.433594 289.789062 L 176.433594 101.792969 C 176.433594 101.328125 176.8125 100.949219 177.28125 100.949219 L 226.34375 100.949219 C 226.8125 100.949219 227.191406 101.328125 227.191406 101.792969 L 227.191406 289.789062 C 227.191406 290.257812 226.8125 290.636719 226.34375 290.636719 Z M 220.183594 288.941406 L 225.496094 288.941406 L 225.496094 102.640625 L 220.183594 102.640625 Z M 213.175781 288.941406 L 218.488281 288.941406 L 218.488281 102.640625 L 213.175781 102.640625 Z M 206.164062 288.941406 L 211.476562 288.941406 L 211.476562 102.640625 L 206.164062 102.640625 Z M 199.15625 288.941406 L 204.46875 288.941406 L 204.46875 102.640625 L 199.15625 102.640625 Z M 192.148438 288.941406 L 197.460938 288.941406 L 197.460938 102.640625 L 192.148438 102.640625 Z M 185.136719 288.941406 L 190.453125 288.941406 L 190.453125 102.640625 L 185.136719 102.640625 Z M 178.128906 288.941406 L 183.441406 288.941406 L 183.441406 102.640625 L 178.128906 102.640625 Z M 178.128906 288.941406 " fill-opacity="1" fill-rule="nonzero"/></g><path fill="#ff2273" d="M 176.898438 32.074219 L 201.808594 0.980469 L 226.742188 32.074219 Z M 176.898438 32.074219 " fill-opacity="1" fill-rule="nonzero"/><path fill="#ffd33b" d="M 176.898438 32.074219 L 226.742188 32.074219 L 226.742188 112.996094 L 176.898438 112.996094 Z M 176.898438 32.074219 " fill-opacity="1" fill-rule="nonzero"/><path fill="#ff2273" d="M 226.742188 82.660156 L 245.511719 103.210938 L 245.511719 128.921875 L 226.742188 112.996094 Z M 176.898438 112.996094 L 158.128906 128.921875 L 158.128906 103.210938 L 176.898438 82.660156 Z M 176.898438 112.996094 " fill-opacity="1" fill-rule="nonzero"/><path fill="#000002" d="M 245.511719 129.769531 C 245.3125 129.769531 245.117188 129.699219 244.960938 129.566406 L 226.429688 113.84375 L 177.207031 113.84375 L 158.675781 129.566406 C 158.425781 129.78125 158.074219 129.828125 157.773438 129.691406 C 157.472656 129.550781 157.28125 129.25 157.28125 128.921875 L 157.28125 103.210938 C 157.28125 103 157.359375 102.796875 157.503906 102.636719 L 176.050781 82.332031 L 176.050781 32.074219 C 176.050781 32.074219 176.050781 32.074219 176.050781 32.070312 C 176.050781 32.066406 176.050781 32.066406 176.050781 32.066406 C 176.050781 31.867188 176.125 31.683594 176.242188 31.539062 L 201.148438 0.449219 C 201.46875 0.0507812 202.148438 0.0507812 202.472656 0.449219 L 227.398438 31.539062 C 227.511719 31.679688 227.582031 31.855469 227.589844 32.050781 C 227.589844 32.058594 227.589844 32.070312 227.589844 32.078125 L 227.589844 82.332031 L 246.136719 102.636719 C 246.277344 102.796875 246.359375 102.996094 246.359375 103.210938 L 246.359375 128.921875 C 246.359375 129.25 246.167969 129.550781 245.867188 129.691406 C 245.753906 129.742188 245.628906 129.769531 245.511719 129.769531 Z M 158.976562 103.539062 L 158.976562 127.089844 L 176.050781 112.601562 L 176.050781 84.84375 Z M 227.589844 112.605469 L 244.664062 127.09375 L 244.664062 103.539062 L 227.589844 84.84375 Z M 177.746094 112.148438 L 225.894531 112.148438 L 225.894531 82.664062 C 225.894531 82.660156 225.894531 82.660156 225.894531 82.65625 L 225.894531 32.921875 L 177.746094 32.921875 Z M 178.664062 31.226562 L 224.976562 31.226562 L 201.808594 2.335938 Z M 178.664062 31.226562 " fill-opacity="1" fill-rule="nonzero"/><path fill="#000002" d="M 208.320312 105.65625 C 205.480469 105.65625 202.546875 104.917969 199.519531 103.441406 C 199.273438 103.640625 198.984375 103.8125 198.65625 103.953125 C 198.226562 104.136719 197.730469 103.933594 197.546875 103.503906 C 197.363281 103.074219 197.5625 102.574219 197.992188 102.394531 C 198.660156 102.109375 198.933594 101.671875 198.910156 100.921875 C 198.898438 100.457031 199.265625 100.066406 199.734375 100.050781 C 200.207031 100.023438 200.589844 100.402344 200.605469 100.871094 C 200.617188 101.285156 200.574219 101.671875 200.46875 102.019531 C 207.324219 105.285156 213.4375 104.46875 219.128906 99.519531 C 218.898438 99.1875 218.726562 98.796875 218.609375 98.34375 C 218.496094 97.890625 218.769531 97.429688 219.222656 97.3125 C 219.675781 97.199219 220.136719 97.472656 220.253906 97.925781 C 220.4375 98.648438 220.820312 98.996094 221.539062 99.085938 C 222.003906 99.144531 222.332031 99.566406 222.277344 100.03125 C 222.21875 100.496094 221.800781 100.832031 221.332031 100.765625 C 221.035156 100.730469 220.757812 100.664062 220.5 100.570312 C 216.699219 103.957031 212.625 105.65625 208.320312 105.65625 Z M 208.320312 105.65625 " fill-opacity="1" fill-rule="nonzero"/><path fill="#000002" d="M 256.894531 243.867188 C 256.492188 243.867188 256.085938 243.75 255.722656 243.507812 C 254.765625 242.859375 254.515625 241.558594 255.164062 240.601562 L 256.957031 237.953125 C 257.605469 236.996094 258.90625 236.742188 259.867188 237.390625 C 260.824219 238.039062 261.074219 239.339844 260.429688 240.296875 L 258.632812 242.949219 C 258.226562 243.546875 257.566406 243.867188 256.894531 243.867188 Z M 249.65625 238.964844 C 249.253906 238.964844 248.84375 238.847656 248.484375 238.605469 C 247.527344 237.957031 247.273438 236.65625 247.921875 235.699219 L 249.71875 233.046875 C 250.367188 232.09375 251.667969 231.839844 252.625 232.488281 C 253.585938 233.136719 253.835938 234.4375 253.1875 235.394531 L 251.390625 238.046875 C 250.988281 238.640625 250.328125 238.964844 249.65625 238.964844 Z M 249.65625 238.964844 " fill-opacity="1" fill-rule="nonzero"/><path fill="#000002" d="M 255.164062 252.867188 C 255.042969 252.867188 254.921875 252.84375 254.804688 252.789062 L 242.617188 247.105469 C 242.195312 246.910156 242.011719 246.40625 242.210938 245.980469 C 242.40625 245.558594 242.910156 245.375 243.335938 245.570312 L 255.523438 251.253906 C 255.945312 251.449219 256.128906 251.953125 255.933594 252.378906 C 255.789062 252.6875 255.480469 252.867188 255.164062 252.867188 Z M 255.164062 252.867188 " fill-opacity="1" fill-rule="nonzero"/><path fill="#000002" d="M 149.875 177.394531 C 149.203125 177.394531 148.542969 177.074219 148.136719 176.476562 L 146.34375 173.824219 C 145.695312 172.867188 145.945312 171.566406 146.902344 170.917969 C 147.863281 170.269531 149.164062 170.519531 149.8125 171.480469 L 151.605469 174.128906 C 152.253906 175.085938 152.003906 176.390625 151.046875 177.035156 C 150.6875 177.277344 150.277344 177.394531 149.875 177.394531 Z M 157.113281 172.492188 C 156.441406 172.492188 155.78125 172.171875 155.378906 171.574219 L 153.582031 168.921875 C 152.933594 167.964844 153.183594 166.664062 154.144531 166.015625 C 155.101562 165.367188 156.402344 165.617188 157.050781 166.574219 L 158.847656 169.226562 C 159.496094 170.183594 159.242188 171.484375 158.285156 172.132812 C 157.925781 172.375 157.519531 172.492188 157.113281 172.492188 Z M 157.113281 172.492188 " fill-opacity="1" fill-rule="nonzero"/><path fill="#000002" d="M 151.609375 186.394531 C 151.289062 186.394531 150.984375 186.214844 150.839844 185.90625 C 150.640625 185.480469 150.824219 184.976562 151.25 184.78125 L 163.4375 179.097656 C 163.859375 178.902344 164.363281 179.085938 164.5625 179.507812 C 164.761719 179.933594 164.574219 180.4375 164.152344 180.632812 L 151.964844 186.3125 C 151.851562 186.371094 151.726562 186.394531 151.609375 186.394531 Z M 151.609375 186.394531 " fill-opacity="1" fill-rule="nonzero"/><path fill="#000002" d="M 92.609375 240.976562 C 91.9375 240.976562 91.277344 240.65625 90.875 240.058594 L 89.078125 237.40625 C 88.429688 236.449219 88.679688 235.148438 89.640625 234.5 C 90.597656 233.851562 91.898438 234.101562 92.546875 235.0625 L 94.34375 237.710938 C 94.992188 238.667969 94.742188 239.96875 93.78125 240.617188 C 93.421875 240.859375 93.015625 240.976562 92.609375 240.976562 Z M 99.851562 236.074219 C 99.179688 236.074219 98.519531 235.753906 98.113281 235.15625 L 96.320312 232.503906 C 95.671875 231.546875 95.921875 230.246094 96.882812 229.597656 C 97.839844 228.949219 99.140625 229.199219 99.789062 230.15625 L 101.585938 232.808594 C 102.230469 233.765625 101.980469 235.066406 101.023438 235.714844 C 100.664062 235.957031 100.253906 236.074219 99.851562 236.074219 Z M 99.851562 236.074219 " fill-opacity="1" fill-rule="nonzero"/><path fill="#000002" d="M 94.34375 249.976562 C 94.027344 249.976562 93.71875 249.796875 93.574219 249.488281 C 93.378906 249.0625 93.5625 248.558594 93.984375 248.363281 L 106.171875 242.679688 C 106.597656 242.484375 107.101562 242.667969 107.300781 243.089844 C 107.496094 243.511719 107.3125 244.019531 106.890625 244.214844 L 94.703125 249.894531 C 94.585938 249.953125 94.464844 249.976562 94.34375 249.976562 Z M 94.34375 249.976562 " fill-opacity="1" fill-rule="nonzero"/><path fill="#feffff" d="M 156.914062 276.695312 C 158.535156 276.703125 160.0625 277.152344 161.5 278.050781 C 162.898438 278.925781 163.835938 279.992188 164.3125 281.238281 C 163.835938 279.992188 162.898438 278.925781 161.5 278.050781 C 160.0625 277.152344 158.535156 276.703125 156.914062 276.695312 Z M 255.363281 289.871094 L 147 289.871094 C 146.734375 288.496094 146.601562 287.421875 146.601562 286.660156 C 146.601562 283.324219 147.746094 280.753906 150.03125 278.945312 C 151.933594 277.445312 154.214844 276.695312 156.871094 276.695312 C 156.886719 276.695312 156.898438 276.695312 156.914062 276.695312 C 156.886719 276.4375 156.871094 276.21875 156.871094 276.039062 C 156.871094 272.753906 158.203125 269.925781 160.863281 267.546875 C 163.402344 265.261719 166.265625 264.117188 169.457031 264.117188 C 170.523438 264.117188 171.535156 264.179688 172.488281 264.308594 C 173.09375 261.601562 174.949219 259.445312 178.054688 257.839844 C 181.019531 256.296875 184.25 255.527344 187.746094 255.527344 C 191.085938 255.527344 194.308594 257.234375 197.421875 260.648438 C 199.347656 262.757812 200.664062 264.871094 201.371094 266.988281 C 201.601562 266.84375 201.839844 266.695312 202.089844 266.550781 C 204.855469 264.925781 207.492188 264.117188 210.007812 264.117188 C 211.714844 264.117188 213.292969 264.902344 214.746094 266.476562 C 215.203125 265.863281 215.722656 265.273438 216.308594 264.714844 C 219.140625 262.003906 222.851562 260.648438 227.4375 260.648438 C 230.238281 260.648438 233.136719 261.460938 236.125 263.089844 C 237.269531 262.617188 238.761719 262.382812 240.601562 262.382812 C 243.128906 262.382812 245.332031 263.347656 247.207031 265.273438 C 249.066406 267.199219 249.996094 269.464844 249.996094 272.070312 C 249.996094 273.769531 249.597656 275.144531 248.800781 276.195312 C 248.617188 276.441406 248.410156 276.671875 248.183594 276.894531 C 249.683594 277.457031 251.050781 278.328125 252.292969 279.503906 C 254.617188 281.710938 255.78125 284.289062 255.78125 287.238281 C 255.78125 288.023438 255.640625 288.898438 255.363281 289.871094 Z M 172.488281 264.308594 C 179.089844 265.183594 183.039062 269.082031 184.335938 276.007812 C 183.039062 269.082031 179.089844 265.183594 172.488281 264.308594 Z M 231.128906 270.714844 C 231.035156 270.515625 230.871094 270.417969 230.632812 270.417969 C 232.292969 266.988281 233.683594 264.808594 234.800781 263.878906 C 235.171875 263.570312 235.613281 263.308594 236.125 263.09375 C 235.613281 263.308594 235.171875 263.570312 234.800781 263.878906 C 233.683594 264.808594 232.292969 266.988281 230.632812 270.417969 C 230.871094 270.417969 231.035156 270.515625 231.128906 270.714844 Z M 201.371094 266.988281 C 201.785156 268.222656 201.988281 269.457031 201.988281 270.695312 C 201.988281 271.703125 201.644531 272.84375 200.953125 274.105469 C 200.285156 275.324219 199.695312 275.996094 199.175781 276.117188 C 199.695312 275.996094 200.289062 275.328125 200.953125 274.105469 C 201.644531 272.84375 201.988281 271.703125 201.988281 270.695312 C 201.988281 269.457031 201.78125 268.222656 201.371094 266.988281 Z M 214.746094 266.480469 C 213.128906 268.660156 212.320312 271.195312 212.320312 274.082031 C 212.320312 274.375 212.492188 275.027344 212.839844 276.035156 C 213.253906 277.230469 213.65625 278.003906 214.054688 278.347656 C 213.65625 278.003906 213.25 277.230469 212.839844 276.035156 C 212.492188 275.027344 212.320312 274.375 212.320312 274.082031 C 212.320312 271.195312 213.128906 268.660156 214.746094 266.480469 Z M 238.570312 277.769531 C 238.953125 276.949219 239.613281 276.433594 240.542969 276.234375 C 240.941406 276.15625 242 276.117188 243.714844 276.117188 C 245.3125 276.117188 246.800781 276.375 248.183594 276.894531 C 246.804688 276.375 245.3125 276.117188 243.714844 276.117188 C 242 276.117188 240.941406 276.15625 240.542969 276.234375 C 239.613281 276.433594 238.953125 276.949219 238.570312 277.769531 Z M 238.570312 277.769531 " fill-opacity="1" fill-rule="nonzero"/><g clip-path="url(#08de8ed15f)"><path fill="#000002" d="M 255.800781 290.71875 L 147 290.71875 C 146.59375 290.71875 146.246094 290.429688 146.167969 290.03125 C 145.890625 288.589844 145.753906 287.484375 145.753906 286.660156 C 145.753906 283.070312 147.015625 280.25 149.503906 278.28125 C 151.34375 276.828125 153.535156 276.019531 156.027344 275.871094 C 156.070312 272.421875 157.507812 269.410156 160.296875 266.914062 C 162.984375 264.496094 166.066406 263.269531 169.457031 263.269531 C 170.289062 263.269531 171.09375 263.308594 171.859375 263.382812 C 172.675781 260.773438 174.625 258.65625 177.664062 257.085938 C 180.738281 255.488281 184.128906 254.679688 187.746094 254.679688 C 191.320312 254.679688 194.785156 256.496094 198.046875 260.078125 C 199.75 261.941406 201.007812 263.839844 201.804688 265.734375 C 204.636719 264.097656 207.394531 263.269531 210.007812 263.269531 C 211.675781 263.269531 213.242188 263.921875 214.667969 265.210938 C 214.996094 264.832031 215.347656 264.457031 215.722656 264.101562 C 218.703125 261.25 222.644531 259.800781 227.4375 259.800781 C 230.261719 259.800781 233.199219 260.597656 236.183594 262.164062 C 237.367188 261.746094 238.851562 261.535156 240.601562 261.535156 C 243.355469 261.535156 245.78125 262.59375 247.8125 264.683594 C 249.824219 266.765625 250.84375 269.25 250.84375 272.070312 C 250.84375 273.882812 250.417969 275.398438 249.574219 276.574219 C 250.757812 277.15625 251.863281 277.929688 252.875 278.890625 C 255.367188 281.25 256.628906 284.0625 256.628906 287.238281 C 256.628906 287.859375 256.550781 288.539062 256.390625 289.261719 C 256.550781 289.414062 256.648438 289.628906 256.648438 289.867188 C 256.648438 290.339844 256.269531 290.71875 255.800781 290.71875 Z M 147.707031 289.023438 L 254.707031 289.023438 C 254.859375 288.375 254.933594 287.773438 254.933594 287.238281 C 254.933594 284.503906 253.878906 282.175781 251.707031 280.121094 C 250.554688 279.027344 249.269531 278.207031 247.882812 277.6875 C 246.605469 277.207031 245.203125 276.964844 243.714844 276.964844 C 241.546875 276.964844 240.902344 277.027344 240.710938 277.066406 C 240.050781 277.207031 239.609375 277.546875 239.339844 278.128906 C 239.140625 278.554688 238.632812 278.734375 238.210938 278.539062 C 237.789062 278.339844 237.605469 277.835938 237.804688 277.410156 C 238.300781 276.355469 239.1875 275.660156 240.367188 275.40625 C 240.671875 275.347656 241.335938 275.269531 243.71875 275.269531 C 245.207031 275.269531 246.625 275.484375 247.945312 275.914062 C 248.007812 275.839844 248.070312 275.765625 248.125 275.6875 C 248.808594 274.789062 249.152344 273.574219 249.152344 272.070312 C 249.152344 269.671875 248.316406 267.640625 246.597656 265.863281 C 244.875 264.089844 242.914062 263.230469 240.605469 263.230469 C 238.886719 263.230469 237.488281 263.445312 236.453125 263.871094 C 236.023438 264.054688 235.648438 264.273438 235.34375 264.527344 C 234.683594 265.078125 233.535156 266.492188 231.738281 270.089844 C 231.800781 270.167969 231.855469 270.257812 231.898438 270.355469 C 232.097656 270.78125 231.914062 271.285156 231.488281 271.480469 C 231.128906 271.648438 230.710938 271.542969 230.472656 271.246094 C 230.242188 271.199219 230.039062 271.0625 229.914062 270.863281 C 229.761719 270.617188 229.742188 270.308594 229.871094 270.046875 C 231.601562 266.472656 233.035156 264.242188 234.257812 263.226562 C 234.292969 263.199219 234.324219 263.175781 234.355469 263.148438 C 231.984375 262.050781 229.660156 261.496094 227.441406 261.496094 C 223.101562 261.496094 219.554688 262.785156 216.898438 265.324219 C 216.347656 265.851562 215.851562 266.410156 215.425781 266.984375 C 213.929688 269.003906 213.171875 271.394531 213.171875 274.082031 C 213.171875 274.113281 213.191406 274.4375 213.644531 275.761719 C 214.136719 277.183594 214.484375 277.597656 214.613281 277.707031 C 214.96875 278.015625 215.003906 278.550781 214.699219 278.902344 C 214.394531 279.257812 213.859375 279.296875 213.503906 278.988281 C 212.976562 278.535156 212.511719 277.683594 212.039062 276.3125 C 211.542969 274.859375 211.476562 274.371094 211.476562 274.082031 C 211.476562 271.28125 212.207031 268.757812 213.648438 266.570312 C 212.496094 265.492188 211.304688 264.964844 210.007812 264.964844 C 207.660156 264.964844 205.140625 265.742188 202.519531 267.28125 C 202.46875 267.308594 202.421875 267.335938 202.375 267.363281 C 202.683594 268.46875 202.839844 269.585938 202.839844 270.695312 C 202.839844 271.84375 202.453125 273.128906 201.699219 274.507812 C 200.882812 276.007812 200.164062 276.757812 199.371094 276.941406 C 198.914062 277.046875 198.457031 276.761719 198.351562 276.304688 C 198.246094 275.851562 198.53125 275.394531 198.988281 275.289062 C 198.992188 275.289062 199.414062 275.164062 200.210938 273.699219 C 200.828125 272.566406 201.144531 271.554688 201.144531 270.695312 C 201.144531 269.554688 200.949219 268.398438 200.570312 267.257812 C 200.570312 267.253906 200.570312 267.253906 200.570312 267.253906 C 199.902344 265.257812 198.632812 263.230469 196.796875 261.21875 C 193.867188 258.003906 190.824219 256.371094 187.75 256.371094 C 184.40625 256.371094 181.277344 257.117188 178.449219 258.589844 C 175.898438 259.90625 174.296875 261.558594 173.570312 263.617188 C 179.96875 264.789062 183.871094 268.902344 185.175781 275.851562 C 185.261719 276.308594 184.957031 276.753906 184.496094 276.839844 C 184.035156 276.921875 183.59375 276.621094 183.507812 276.160156 C 182.273438 269.578125 178.632812 265.976562 172.382812 265.144531 C 172.378906 265.144531 172.378906 265.144531 172.378906 265.144531 C 171.464844 265.023438 170.484375 264.964844 169.460938 264.964844 C 166.5 264.964844 163.800781 266.042969 161.433594 268.175781 C 158.976562 270.371094 157.761719 272.894531 157.722656 275.886719 C 159.203125 276.019531 160.625 276.503906 161.953125 277.332031 C 163.503906 278.304688 164.5625 279.515625 165.105469 280.933594 C 165.273438 281.371094 165.054688 281.863281 164.617188 282.03125 C 164.179688 282.195312 163.691406 281.976562 163.523438 281.539062 C 163.113281 280.472656 162.28125 279.539062 161.050781 278.765625 C 159.757812 277.960938 158.367188 277.546875 156.914062 277.542969 L 156.875 277.542969 C 154.421875 277.542969 152.296875 278.238281 150.558594 279.609375 C 148.46875 281.261719 147.449219 283.570312 147.449219 286.660156 C 147.449219 287.238281 147.535156 288.03125 147.707031 289.023438 Z M 147.707031 289.023438 " fill-opacity="1" fill-rule="nonzero"/></g><path fill="#000002" d="M 201.886719 93.65625 C 200.871094 93.65625 199.980469 92.921875 199.820312 91.890625 L 199.316406 88.71875 C 199.136719 87.578125 199.914062 86.503906 201.058594 86.324219 C 202.199219 86.144531 203.273438 86.921875 203.453125 88.066406 L 203.957031 91.234375 C 204.136719 92.375 203.359375 93.449219 202.214844 93.628906 C 202.105469 93.648438 201.992188 93.65625 201.886719 93.65625 Z M 214.632812 91.640625 C 213.617188 91.640625 212.726562 90.902344 212.566406 89.871094 L 212.0625 86.703125 C 211.882812 85.5625 212.660156 84.488281 213.804688 84.308594 C 214.945312 84.128906 216.019531 84.90625 216.199219 86.046875 L 216.703125 89.21875 C 216.882812 90.359375 216.101562 91.429688 214.960938 91.613281 C 214.851562 91.628906 214.738281 91.640625 214.632812 91.640625 Z M 214.632812 91.640625 " fill-opacity="1" fill-rule="nonzero"/><path fill="#feffff" d="M 157.605469 67.4375 C 156.636719 70.484375 156.371094 72.617188 156.804688 73.839844 C 157.425781 74.980469 159.191406 76.207031 162.101562 77.527344 C 165.011719 78.851562 166.484375 79.972656 166.523438 80.894531 C 165.878906 81.550781 164.03125 81.398438 160.984375 80.4375 C 157.9375 79.472656 155.804688 79.203125 154.578125 79.632812 C 153.4375 80.253906 152.210938 82.019531 150.890625 84.929688 C 149.566406 87.835938 148.441406 89.308594 147.519531 89.347656 C 146.863281 88.703125 147.015625 86.855469 147.976562 83.8125 C 148.941406 80.769531 149.210938 78.632812 148.78125 77.410156 C 148.160156 76.269531 146.394531 75.042969 143.480469 73.722656 C 140.574219 72.402344 139.101562 71.277344 139.0625 70.359375 C 139.707031 69.699219 141.550781 69.851562 144.601562 70.8125 C 147.644531 71.777344 149.78125 72.046875 151.007812 71.617188 C 152.144531 70.996094 153.375 69.230469 154.695312 66.324219 C 156.019531 63.414062 157.144531 61.941406 158.0625 61.90625 C 158.726562 62.546875 158.574219 64.390625 157.605469 67.4375 Z M 157.605469 67.4375 " fill-opacity="1" fill-rule="nonzero"/><path fill="#feffff" d="M 243.488281 161.738281 L 243.488281 157.417969 L 245.9375 157.417969 L 245.9375 161.738281 L 250.265625 161.738281 L 250.265625 164.195312 L 245.9375 164.195312 L 245.9375 168.507812 L 243.488281 168.507812 L 243.488281 164.195312 L 239.164062 164.195312 L 239.164062 161.738281 Z M 243.488281 161.738281 " fill-opacity="1" fill-rule="nonzero"/><path fill="#feffff" d="M 268.300781 112.363281 C 267.335938 115.410156 267.066406 117.542969 267.5 118.765625 C 268.121094 119.902344 269.890625 121.132812 272.800781 122.453125 C 275.710938 123.777344 277.179688 124.898438 277.21875 125.816406 C 276.574219 126.476562 274.730469 126.324219 271.679688 125.363281 C 268.636719 124.394531 266.5 124.128906 265.273438 124.558594 C 264.136719 125.179688 262.90625 126.945312 261.585938 129.855469 C 260.261719 132.761719 259.136719 134.234375 258.21875 134.273438 C 257.558594 133.628906 257.710938 131.78125 258.671875 128.734375 C 259.640625 125.691406 259.910156 123.558594 259.480469 122.332031 C 258.855469 121.195312 257.089844 119.964844 254.179688 118.648438 C 251.269531 117.324219 249.796875 116.203125 249.757812 115.28125 C 250.402344 114.625 252.25 114.773438 255.296875 115.738281 C 258.34375 116.703125 260.476562 116.972656 261.703125 116.542969 C 262.84375 115.921875 264.070312 114.15625 265.390625 111.246094 C 266.714844 108.339844 267.839844 106.867188 268.761719 106.828125 C 269.421875 107.472656 269.269531 109.316406 268.300781 112.363281 Z M 268.300781 112.363281 " fill-opacity="1" fill-rule="nonzero"/><path fill="#feffff" d="M 162.449219 144.21875 L 162.449219 139.894531 L 164.902344 139.894531 L 164.902344 144.21875 L 169.226562 144.21875 L 169.226562 146.671875 L 164.902344 146.671875 L 164.902344 150.988281 L 162.449219 150.988281 L 162.449219 146.671875 L 158.125 146.671875 L 158.125 144.21875 Z M 162.449219 144.21875 " fill-opacity="1" fill-rule="nonzero"/><path fill="#feffff" d="M 236.207031 198.273438 L 236.207031 193.949219 L 238.660156 193.949219 L 238.660156 198.273438 L 242.984375 198.273438 L 242.984375 200.730469 L 238.660156 200.730469 L 238.660156 205.042969 L 236.207031 205.042969 L 236.207031 200.730469 L 231.882812 200.730469 L 231.882812 198.273438 Z M 236.207031 198.273438 " fill-opacity="1" fill-rule="nonzero"/><path fill="#ffd33b" d="M 118.738281 164.957031 C 118.738281 161.714844 120.359375 160.09375 123.605469 160.09375 L 163.714844 160.09375 C 166.957031 160.09375 168.582031 161.714844 168.582031 164.957031 L 168.582031 289.789062 L 118.738281 289.789062 Z M 118.738281 164.957031 " fill-opacity="1" fill-rule="nonzero"/><g clip-path="url(#b612520c3f)"><path fill="#000002" d="M 168.582031 290.636719 L 118.738281 290.636719 C 118.269531 290.636719 117.890625 290.257812 117.890625 289.789062 L 117.890625 164.957031 C 117.890625 161.222656 119.867188 159.25 123.605469 159.25 L 163.714844 159.25 C 167.453125 159.25 169.429688 161.222656 169.429688 164.957031 L 169.429688 289.789062 C 169.429688 290.257812 169.050781 290.636719 168.582031 290.636719 Z M 119.585938 288.941406 L 167.734375 288.941406 L 167.734375 164.957031 C 167.734375 162.179688 166.492188 160.941406 163.714844 160.941406 L 123.605469 160.941406 C 120.824219 160.941406 119.585938 162.179688 119.585938 164.957031 Z M 119.585938 288.941406 " fill-opacity="1" fill-rule="nonzero"/></g><path fill="#ffd33b" d="M 62.25 289.789062 L 62.25 228.738281 C 62.25 225.496094 63.875 223.878906 67.117188 223.878906 L 107.230469 223.878906 C 110.472656 223.878906 112.09375 225.496094 112.09375 228.738281 L 112.09375 289.789062 Z M 62.25 289.789062 " fill-opacity="1" fill-rule="nonzero"/><g clip-path="url(#70e0070cc4)"><path fill="#000002" d="M 112.09375 290.636719 L 62.25 290.636719 C 61.78125 290.636719 61.402344 290.257812 61.402344 289.789062 L 61.402344 228.738281 C 61.402344 225.003906 63.378906 223.03125 67.117188 223.03125 L 107.230469 223.03125 C 110.96875 223.03125 112.945312 225.003906 112.945312 228.738281 L 112.945312 289.789062 C 112.945312 290.257812 112.5625 290.636719 112.09375 290.636719 Z M 63.101562 288.941406 L 111.246094 288.941406 L 111.246094 228.738281 C 111.246094 225.960938 110.007812 224.722656 107.230469 224.722656 L 67.121094 224.722656 C 64.339844 224.722656 63.101562 225.960938 63.101562 228.738281 Z M 63.101562 288.941406 " fill-opacity="1" fill-rule="nonzero"/></g><path fill="#ffd33b" d="M 234.042969 289.789062 L 234.042969 228.738281 C 234.042969 225.496094 235.664062 223.878906 238.90625 223.878906 L 279.019531 223.878906 C 282.261719 223.878906 283.886719 225.496094 283.886719 228.738281 L 283.886719 289.789062 Z M 234.042969 289.789062 " fill-opacity="1" fill-rule="nonzero"/><g clip-path="url(#e68a9e5489)"><path fill="#000002" d="M 283.886719 290.636719 L 234.042969 290.636719 C 233.574219 290.636719 233.195312 290.257812 233.195312 289.789062 L 233.195312 228.738281 C 233.195312 225.003906 235.167969 223.03125 238.90625 223.03125 L 279.019531 223.03125 C 282.757812 223.03125 284.730469 225.003906 284.730469 228.738281 L 284.730469 289.789062 C 284.734375 290.257812 284.351562 290.636719 283.886719 290.636719 Z M 234.890625 288.941406 L 283.039062 288.941406 L 283.039062 228.738281 C 283.039062 225.960938 281.796875 224.722656 279.019531 224.722656 L 238.90625 224.722656 C 236.128906 224.722656 234.890625 225.960938 234.890625 228.738281 Z M 234.890625 288.941406 " fill-opacity="1" fill-rule="nonzero"/></g><g clip-path="url(#e4cd0bdaa3)"><path fill="#ff2373" d="M 177.28125 289.789062 L 177.28125 101.792969 L 184.289062 101.792969 L 184.289062 289.789062 Z M 177.28125 289.789062 " fill-opacity="1" fill-rule="nonzero"/></g><g clip-path="url(#f58b7fc692)"><path fill="#ff9900" d="M 184.289062 289.789062 L 184.289062 101.792969 L 191.300781 101.792969 L 191.300781 289.789062 Z M 184.289062 289.789062 " fill-opacity="1" fill-rule="nonzero"/></g><g clip-path="url(#daca384086)"><path fill="#ffd43b" d="M 191.300781 289.789062 L 191.300781 101.792969 L 198.308594 101.792969 L 198.308594 289.789062 Z M 191.300781 289.789062 " fill-opacity="1" fill-rule="nonzero"/></g><g clip-path="url(#97b5f807a0)"><path fill="#00ce98" d="M 198.308594 289.789062 L 198.308594 101.792969 L 205.316406 101.792969 L 205.316406 289.789062 Z M 198.308594 289.789062 " fill-opacity="1" fill-rule="nonzero"/></g><g clip-path="url(#4f7c629034)"><path fill="#00ccff" d="M 205.316406 289.789062 L 205.316406 101.792969 L 212.324219 101.792969 L 212.324219 289.789062 Z M 205.316406 289.789062 " fill-opacity="1" fill-rule="nonzero"/></g><g clip-path="url(#930b27b316)"><path fill="#0066cc" d="M 212.328125 289.789062 L 212.328125 101.792969 L 219.335938 101.792969 L 219.335938 289.789062 Z M 212.328125 289.789062 " fill-opacity="1" fill-rule="nonzero"/></g><g clip-path="url(#0b5c6313c6)"><path fill="#9933cc" d="M 219.335938 289.789062 L 219.335938 101.792969 L 226.34375 101.792969 L 226.34375 289.789062 Z M 219.335938 289.789062 " fill-opacity="1" fill-rule="nonzero"/></g><g clip-path="url(#0afdd2252a)"><path fill="#000002" d="M 226.34375 290.636719 L 177.28125 290.636719 C 176.8125 290.636719 176.433594 290.257812 176.433594 289.789062 L 176.433594 101.792969 C 176.433594 101.328125 176.8125 100.949219 177.28125 100.949219 L 226.34375 100.949219 C 226.8125 100.949219 227.191406 101.328125 227.191406 101.792969 L 227.191406 289.789062 C 227.191406 290.257812 226.8125 290.636719 226.34375 290.636719 Z M 220.183594 288.941406 L 225.496094 288.941406 L 225.496094 102.640625 L 220.183594 102.640625 Z M 213.175781 288.941406 L 218.488281 288.941406 L 218.488281 102.640625 L 213.175781 102.640625 Z M 206.164062 288.941406 L 211.476562 288.941406 L 211.476562 102.640625 L 206.164062 102.640625 Z M 199.15625 288.941406 L 204.46875 288.941406 L 204.46875 102.640625 L 199.15625 102.640625 Z M 192.148438 288.941406 L 197.460938 288.941406 L 197.460938 102.640625 L 192.148438 102.640625 Z M 185.136719 288.941406 L 190.453125 288.941406 L 190.453125 102.640625 L 185.136719 102.640625 Z M 178.128906 288.941406 L 183.441406 288.941406 L 183.441406 102.640625 L 178.128906 102.640625 Z M 178.128906 288.941406 " fill-opacity="1" fill-rule="nonzero"/></g><path fill="#ff2273" d="M 176.898438 32.074219 L 201.808594 0.980469 L 226.742188 32.074219 Z M 176.898438 32.074219 " fill-opacity="1" fill-rule="nonzero"/><path fill="#ffd33b" d="M 176.898438 32.074219 L 226.742188 32.074219 L 226.742188 112.996094 L 176.898438 112.996094 Z M 176.898438 32.074219 " fill-opacity="1" fill-rule="nonzero"/><path fill="#ff2273" d="M 226.742188 82.660156 L 245.511719 103.210938 L 245.511719 128.921875 L 226.742188 112.996094 Z M 176.898438 112.996094 L 158.128906 128.921875 L 158.128906 103.210938 L 176.898438 82.660156 Z M 176.898438 112.996094 " fill-opacity="1" fill-rule="nonzero"/><path fill="#000002" d="M 245.511719 129.769531 C 245.3125 129.769531 245.117188 129.699219 244.960938 129.566406 L 226.429688 113.84375 L 177.207031 113.84375 L 158.675781 129.566406 C 158.425781 129.78125 158.074219 129.828125 157.773438 129.691406 C 157.472656 129.550781 157.28125 129.25 157.28125 128.921875 L 157.28125 103.210938 C 157.28125 103 157.359375 102.796875 157.503906 102.636719 L 176.050781 82.332031 L 176.050781 32.074219 C 176.050781 32.074219 176.050781 32.074219 176.050781 32.070312 C 176.050781 32.066406 176.050781 32.066406 176.050781 32.066406 C 176.050781 31.867188 176.125 31.683594 176.242188 31.539062 L 201.148438 0.449219 C 201.46875 0.0507812 202.148438 0.0507812 202.472656 0.449219 L 227.398438 31.539062 C 227.511719 31.679688 227.582031 31.855469 227.589844 32.050781 C 227.589844 32.058594 227.589844 32.070312 227.589844 32.078125 L 227.589844 82.332031 L 246.136719 102.636719 C 246.277344 102.796875 246.359375 102.996094 246.359375 103.210938 L 246.359375 128.921875 C 246.359375 129.25 246.167969 129.550781 245.867188 129.691406 C 245.753906 129.742188 245.628906 129.769531 245.511719 129.769531 Z M 158.976562 103.539062 L 158.976562 127.089844 L 176.050781 112.601562 L 176.050781 84.84375 Z M 227.589844 112.605469 L 244.664062 127.09375 L 244.664062 103.539062 L 227.589844 84.84375 Z M 177.746094 112.148438 L 225.894531 112.148438 L 225.894531 82.664062 C 225.894531 82.660156 225.894531 82.660156 225.894531 82.65625 L 225.894531 32.921875 L 177.746094 32.921875 Z M 178.664062 31.226562 L 224.976562 31.226562 L 201.808594 2.335938 Z M 178.664062 31.226562 " fill-opacity="1" fill-rule="nonzero"/><path fill="#000002" d="M 208.320312 105.65625 C 205.480469 105.65625 202.546875 104.917969 199.519531 103.441406 C 199.273438 103.640625 198.984375 103.8125 198.65625 103.953125 C 198.226562 104.136719 197.730469 103.933594 197.546875 103.503906 C 197.363281 103.074219 197.5625 102.574219 197.992188 102.394531 C 198.660156 102.109375 198.933594 101.671875 198.910156 100.921875 C 198.898438 100.457031 199.265625 100.066406 199.734375 100.050781 C 200.207031 100.023438 200.589844 100.402344 200.605469 100.871094 C 200.617188 101.285156 200.574219 101.671875 200.46875 102.019531 C 207.324219 105.285156 213.4375 104.46875 219.128906 99.519531 C 218.898438 99.1875 218.726562 98.796875 218.609375 98.34375 C 218.496094 97.890625 218.769531 97.429688 219.222656 97.3125 C 219.675781 97.199219 220.136719 97.472656 220.253906 97.925781 C 220.4375 98.648438 220.820312 98.996094 221.539062 99.085938 C 222.003906 99.144531 222.332031 99.566406 222.277344 100.03125 C 222.21875 100.496094 221.800781 100.832031 221.332031 100.765625 C 221.035156 100.730469 220.757812 100.664062 220.5 100.570312 C 216.699219 103.957031 212.625 105.65625 208.320312 105.65625 Z M 208.320312 105.65625 " fill-opacity="1" fill-rule="nonzero"/><path fill="#000002" d="M 256.894531 243.867188 C 256.492188 243.867188 256.085938 243.75 255.722656 243.507812 C 254.765625 242.859375 254.515625 241.558594 255.164062 240.601562 L 256.957031 237.953125 C 257.605469 236.996094 258.90625 236.742188 259.867188 237.390625 C 260.824219 238.039062 261.074219 239.339844 260.429688 240.296875 L 258.632812 242.949219 C 258.226562 243.546875 257.566406 243.867188 256.894531 243.867188 Z M 249.65625 238.964844 C 249.253906 238.964844 248.84375 238.847656 248.484375 238.605469 C 247.527344 237.957031 247.273438 236.65625 247.921875 235.699219 L 249.71875 233.046875 C 250.367188 232.09375 251.667969 231.839844 252.625 232.488281 C 253.585938 233.136719 253.835938 234.4375 253.1875 235.394531 L 251.390625 238.046875 C 250.988281 238.640625 250.328125 238.964844 249.65625 238.964844 Z M 249.65625 238.964844 " fill-opacity="1" fill-rule="nonzero"/><path fill="#000002" d="M 255.164062 252.867188 C 255.042969 252.867188 254.921875 252.84375 254.804688 252.789062 L 242.617188 247.105469 C 242.195312 246.910156 242.011719 246.40625 242.210938 245.980469 C 242.40625 245.558594 242.910156 245.375 243.335938 245.570312 L 255.523438 251.253906 C 255.945312 251.449219 256.128906 251.953125 255.933594 252.378906 C 255.789062 252.6875 255.480469 252.867188 255.164062 252.867188 Z M 255.164062 252.867188 " fill-opacity="1" fill-rule="nonzero"/><path fill="#000002" d="M 149.875 177.394531 C 149.203125 177.394531 148.542969 177.074219 148.136719 176.476562 L 146.34375 173.824219 C 145.695312 172.867188 145.945312 171.566406 146.902344 170.917969 C 147.863281 170.269531 149.164062 170.519531 149.8125 171.480469 L 151.605469 174.128906 C 152.253906 175.085938 152.003906 176.390625 151.046875 177.035156 C 150.6875 177.277344 150.277344 177.394531 149.875 177.394531 Z M 157.113281 172.492188 C 156.441406 172.492188 155.78125 172.171875 155.378906 171.574219 L 153.582031 168.921875 C 152.933594 167.964844 153.183594 166.664062 154.144531 166.015625 C 155.101562 165.367188 156.402344 165.617188 157.050781 166.574219 L 158.847656 169.226562 C 159.496094 170.183594 159.242188 171.484375 158.285156 172.132812 C 157.925781 172.375 157.519531 172.492188 157.113281 172.492188 Z M 157.113281 172.492188 " fill-opacity="1" fill-rule="nonzero"/><path fill="#000002" d="M 151.609375 186.394531 C 151.289062 186.394531 150.984375 186.214844 150.839844 185.90625 C 150.640625 185.480469 150.824219 184.976562 151.25 184.78125 L 163.4375 179.097656 C 163.859375 178.902344 164.363281 179.085938 164.5625 179.507812 C 164.761719 179.933594 164.574219 180.4375 164.152344 180.632812 L 151.964844 186.3125 C 151.851562 186.371094 151.726562 186.394531 151.609375 186.394531 Z M 151.609375 186.394531 " fill-opacity="1" fill-rule="nonzero"/><path fill="#000002" d="M 92.609375 240.976562 C 91.9375 240.976562 91.277344 240.65625 90.875 240.058594 L 89.078125 237.40625 C 88.429688 236.449219 88.679688 235.148438 89.640625 234.5 C 90.597656 233.851562 91.898438 234.101562 92.546875 235.0625 L 94.34375 237.710938 C 94.992188 238.667969 94.742188 239.96875 93.78125 240.617188 C 93.421875 240.859375 93.015625 240.976562 92.609375 240.976562 Z M 99.851562 236.074219 C 99.179688 236.074219 98.519531 235.753906 98.113281 235.15625 L 96.320312 232.503906 C 95.671875 231.546875 95.921875 230.246094 96.882812 229.597656 C 97.839844 228.949219 99.140625 229.199219 99.789062 230.15625 L 101.585938 232.808594 C 102.230469 233.765625 101.980469 235.066406 101.023438 235.714844 C 100.664062 235.957031 100.253906 236.074219 99.851562 236.074219 Z M 99.851562 236.074219 " fill-opacity="1" fill-rule="nonzero"/><path fill="#000002" d="M 94.34375 249.976562 C 94.027344 249.976562 93.71875 249.796875 93.574219 249.488281 C 93.378906 249.0625 93.5625 248.558594 93.984375 248.363281 L 106.171875 242.679688 C 106.597656 242.484375 107.101562 242.667969 107.300781 243.089844 C 107.496094 243.511719 107.3125 244.019531 106.890625 244.214844 L 94.703125 249.894531 C 94.585938 249.953125 94.464844 249.976562 94.34375 249.976562 Z M 94.34375 249.976562 " fill-opacity="1" fill-rule="nonzero"/><path fill="#feffff" d="M 156.914062 276.695312 C 158.535156 276.703125 160.0625 277.152344 161.5 278.050781 C 162.898438 278.925781 163.835938 279.992188 164.3125 281.238281 C 163.835938 279.992188 162.898438 278.925781 161.5 278.050781 C 160.0625 277.152344 158.535156 276.703125 156.914062 276.695312 Z M 255.363281 289.871094 L 147 289.871094 C 146.734375 288.496094 146.601562 287.421875 146.601562 286.660156 C 146.601562 283.324219 147.746094 280.753906 150.03125 278.945312 C 151.933594 277.445312 154.214844 276.695312 156.871094 276.695312 C 156.886719 276.695312 156.898438 276.695312 156.914062 276.695312 C 156.886719 276.4375 156.871094 276.21875 156.871094 276.039062 C 156.871094 272.753906 158.203125 269.925781 160.863281 267.546875 C 163.402344 265.261719 166.265625 264.117188 169.457031 264.117188 C 170.523438 264.117188 171.535156 264.179688 172.488281 264.308594 C 173.09375 261.601562 174.949219 259.445312 178.054688 257.839844 C 181.019531 256.296875 184.25 255.527344 187.746094 255.527344 C 191.085938 255.527344 194.308594 257.234375 197.421875 260.648438 C 199.347656 262.757812 200.664062 264.871094 201.371094 266.988281 C 201.601562 266.84375 201.839844 266.695312 202.089844 266.550781 C 204.855469 264.925781 207.492188 264.117188 210.007812 264.117188 C 211.714844 264.117188 213.292969 264.902344 214.746094 266.476562 C 215.203125 265.863281 215.722656 265.273438 216.308594 264.714844 C 219.140625 262.003906 222.851562 260.648438 227.4375 260.648438 C 230.238281 260.648438 233.136719 261.460938 236.125 263.089844 C 237.269531 262.617188 238.761719 262.382812 240.601562 262.382812 C 243.128906 262.382812 245.332031 263.347656 247.207031 265.273438 C 249.066406 267.199219 249.996094 269.464844 249.996094 272.070312 C 249.996094 273.769531 249.597656 275.144531 248.800781 276.195312 C 248.617188 276.441406 248.410156 276.671875 248.183594 276.894531 C 249.683594 277.457031 251.050781 278.328125 252.292969 279.503906 C 254.617188 281.710938 255.78125 284.289062 255.78125 287.238281 C 255.78125 288.023438 255.640625 288.898438 255.363281 289.871094 Z M 172.488281 264.308594 C 179.089844 265.183594 183.039062 269.082031 184.335938 276.007812 C 183.039062 269.082031 179.089844 265.183594 172.488281 264.308594 Z M 231.128906 270.714844 C 231.035156 270.515625 230.871094 270.417969 230.632812 270.417969 C 232.292969 266.988281 233.683594 264.808594 234.800781 263.878906 C 235.171875 263.570312 235.613281 263.308594 236.125 263.09375 C 235.613281 263.308594 235.171875 263.570312 234.800781 263.878906 C 233.683594 264.808594 232.292969 266.988281 230.632812 270.417969 C 230.871094 270.417969 231.035156 270.515625 231.128906 270.714844 Z M 201.371094 266.988281 C 201.785156 268.222656 201.988281 269.457031 201.988281 270.695312 C 201.988281 271.703125 201.644531 272.84375 200.953125 274.105469 C 200.285156 275.324219 199.695312 275.996094 199.175781 276.117188 C 199.695312 275.996094 200.289062 275.328125 200.953125 274.105469 C 201.644531 272.84375 201.988281 271.703125 201.988281 270.695312 C 201.988281 269.457031 201.78125 268.222656 201.371094 266.988281 Z M 214.746094 266.480469 C 213.128906 268.660156 212.320312 271.195312 212.320312 274.082031 C 212.320312 274.375 212.492188 275.027344 212.839844 276.035156 C 213.253906 277.230469 213.65625 278.003906 214.054688 278.347656 C 213.65625 278.003906 213.25 277.230469 212.839844 276.035156 C 212.492188 275.027344 212.320312 274.375 212.320312 274.082031 C 212.320312 271.195312 213.128906 268.660156 214.746094 266.480469 Z M 238.570312 277.769531 C 238.953125 276.949219 239.613281 276.433594 240.542969 276.234375 C 240.941406 276.15625 242 276.117188 243.714844 276.117188 C 245.3125 276.117188 246.800781 276.375 248.183594 276.894531 C 246.804688 276.375 245.3125 276.117188 243.714844 276.117188 C 242 276.117188 240.941406 276.15625 240.542969 276.234375 C 239.613281 276.433594 238.953125 276.949219 238.570312 277.769531 Z M 238.570312 277.769531 " fill-opacity="1" fill-rule="nonzero"/><g clip-path="url(#a6a53285d7)"><path fill="#000002" d="M 255.800781 290.71875 L 147 290.71875 C 146.59375 290.71875 146.246094 290.429688 146.167969 290.03125 C 145.890625 288.589844 145.753906 287.484375 145.753906 286.660156 C 145.753906 283.070312 147.015625 280.25 149.503906 278.28125 C 151.34375 276.828125 153.535156 276.019531 156.027344 275.871094 C 156.070312 272.421875 157.507812 269.410156 160.296875 266.914062 C 162.984375 264.496094 166.066406 263.269531 169.457031 263.269531 C 170.289062 263.269531 171.09375 263.308594 171.859375 263.382812 C 172.675781 260.773438 174.625 258.65625 177.664062 257.085938 C 180.738281 255.488281 184.128906 254.679688 187.746094 254.679688 C 191.320312 254.679688 194.785156 256.496094 198.046875 260.078125 C 199.75 261.941406 201.007812 263.839844 201.804688 265.734375 C 204.636719 264.097656 207.394531 263.269531 210.007812 263.269531 C 211.675781 263.269531 213.242188 263.921875 214.667969 265.210938 C 214.996094 264.832031 215.347656 264.457031 215.722656 264.101562 C 218.703125 261.25 222.644531 259.800781 227.4375 259.800781 C 230.261719 259.800781 233.199219 260.597656 236.183594 262.164062 C 237.367188 261.746094 238.851562 261.535156 240.601562 261.535156 C 243.355469 261.535156 245.78125 262.59375 247.8125 264.683594 C 249.824219 266.765625 250.84375 269.25 250.84375 272.070312 C 250.84375 273.882812 250.417969 275.398438 249.574219 276.574219 C 250.757812 277.15625 251.863281 277.929688 252.875 278.890625 C 255.367188 281.25 256.628906 284.0625 256.628906 287.238281 C 256.628906 287.859375 256.550781 288.539062 256.390625 289.261719 C 256.550781 289.414062 256.648438 289.628906 256.648438 289.867188 C 256.648438 290.339844 256.269531 290.71875 255.800781 290.71875 Z M 147.707031 289.023438 L 254.707031 289.023438 C 254.859375 288.375 254.933594 287.773438 254.933594 287.238281 C 254.933594 284.503906 253.878906 282.175781 251.707031 280.121094 C 250.554688 279.027344 249.269531 278.207031 247.882812 277.6875 C 246.605469 277.207031 245.203125 276.964844 243.714844 276.964844 C 241.546875 276.964844 240.902344 277.027344 240.710938 277.066406 C 240.050781 277.207031 239.609375 277.546875 239.339844 278.128906 C 239.140625 278.554688 238.632812 278.734375 238.210938 278.539062 C 237.789062 278.339844 237.605469 277.835938 237.804688 277.410156 C 238.300781 276.355469 239.1875 275.660156 240.367188 275.40625 C 240.671875 275.347656 241.335938 275.269531 243.71875 275.269531 C 245.207031 275.269531 246.625 275.484375 247.945312 275.914062 C 248.007812 275.839844 248.070312 275.765625 248.125 275.6875 C 248.808594 274.789062 249.152344 273.574219 249.152344 272.070312 C 249.152344 269.671875 248.316406 267.640625 246.597656 265.863281 C 244.875 264.089844 242.914062 263.230469 240.605469 263.230469 C 238.886719 263.230469 237.488281 263.445312 236.453125 263.871094 C 236.023438 264.054688 235.648438 264.273438 235.34375 264.527344 C 234.683594 265.078125 233.535156 266.492188 231.738281 270.089844 C 231.800781 270.167969 231.855469 270.257812 231.898438 270.355469 C 232.097656 270.78125 231.914062 271.285156 231.488281 271.480469 C 231.128906 271.648438 230.710938 271.542969 230.472656 271.246094 C 230.242188 271.199219 230.039062 271.0625 229.914062 270.863281 C 229.761719 270.617188 229.742188 270.308594 229.871094 270.046875 C 231.601562 266.472656 233.035156 264.242188 234.257812 263.226562 C 234.292969 263.199219 234.324219 263.175781 234.355469 263.148438 C 231.984375 262.050781 229.660156 261.496094 227.441406 261.496094 C 223.101562 261.496094 219.554688 262.785156 216.898438 265.324219 C 216.347656 265.851562 215.851562 266.410156 215.425781 266.984375 C 213.929688 269.003906 213.171875 271.394531 213.171875 274.082031 C 213.171875 274.113281 213.191406 274.4375 213.644531 275.761719 C 214.136719 277.183594 214.484375 277.597656 214.613281 277.707031 C 214.96875 278.015625 215.003906 278.550781 214.699219 278.902344 C 214.394531 279.257812 213.859375 279.296875 213.503906 278.988281 C 212.976562 278.535156 212.511719 277.683594 212.039062 276.3125 C 211.542969 274.859375 211.476562 274.371094 211.476562 274.082031 C 211.476562 271.28125 212.207031 268.757812 213.648438 266.570312 C 212.496094 265.492188 211.304688 264.964844 210.007812 264.964844 C 207.660156 264.964844 205.140625 265.742188 202.519531 267.28125 C 202.46875 267.308594 202.421875 267.335938 202.375 267.363281 C 202.683594 268.46875 202.839844 269.585938 202.839844 270.695312 C 202.839844 271.84375 202.453125 273.128906 201.699219 274.507812 C 200.882812 276.007812 200.164062 276.757812 199.371094 276.941406 C 198.914062 277.046875 198.457031 276.761719 198.351562 276.304688 C 198.246094 275.851562 198.53125 275.394531 198.988281 275.289062 C 198.992188 275.289062 199.414062 275.164062 200.210938 273.699219 C 200.828125 272.566406 201.144531 271.554688 201.144531 270.695312 C 201.144531 269.554688 200.949219 268.398438 200.570312 267.257812 C 200.570312 267.253906 200.570312 267.253906 200.570312 267.253906 C 199.902344 265.257812 198.632812 263.230469 196.796875 261.21875 C 193.867188 258.003906 190.824219 256.371094 187.75 256.371094 C 184.40625 256.371094 181.277344 257.117188 178.449219 258.589844 C 175.898438 259.90625 174.296875 261.558594 173.570312 263.617188 C 179.96875 264.789062 183.871094 268.902344 185.175781 275.851562 C 185.261719 276.308594 184.957031 276.753906 184.496094 276.839844 C 184.035156 276.921875 183.59375 276.621094 183.507812 276.160156 C 182.273438 269.578125 178.632812 265.976562 172.382812 265.144531 C 172.378906 265.144531 172.378906 265.144531 172.378906 265.144531 C 171.464844 265.023438 170.484375 264.964844 169.460938 264.964844 C 166.5 264.964844 163.800781 266.042969 161.433594 268.175781 C 158.976562 270.371094 157.761719 272.894531 157.722656 275.886719 C 159.203125 276.019531 160.625 276.503906 161.953125 277.332031 C 163.503906 278.304688 164.5625 279.515625 165.105469 280.933594 C 165.273438 281.371094 165.054688 281.863281 164.617188 282.03125 C 164.179688 282.195312 163.691406 281.976562 163.523438 281.539062 C 163.113281 280.472656 162.28125 279.539062 161.050781 278.765625 C 159.757812 277.960938 158.367188 277.546875 156.914062 277.542969 L 156.875 277.542969 C 154.421875 277.542969 152.296875 278.238281 150.558594 279.609375 C 148.46875 281.261719 147.449219 283.570312 147.449219 286.660156 C 147.449219 287.238281 147.535156 288.03125 147.707031 289.023438 Z M 147.707031 289.023438 " fill-opacity="1" fill-rule="nonzero"/></g><path fill="#000002" d="M 201.886719 93.65625 C 200.871094 93.65625 199.980469 92.921875 199.820312 91.890625 L 199.316406 88.71875 C 199.136719 87.578125 199.914062 86.503906 201.058594 86.324219 C 202.199219 86.144531 203.273438 86.921875 203.453125 88.066406 L 203.957031 91.234375 C 204.136719 92.375 203.359375 93.449219 202.214844 93.628906 C 202.105469 93.648438 201.992188 93.65625 201.886719 93.65625 Z M 214.632812 91.640625 C 213.617188 91.640625 212.726562 90.902344 212.566406 89.871094 L 212.0625 86.703125 C 211.882812 85.5625 212.660156 84.488281 213.804688 84.308594 C 214.945312 84.128906 216.019531 84.90625 216.199219 86.046875 L 216.703125 89.21875 C 216.882812 90.359375 216.101562 91.429688 214.960938 91.613281 C 214.851562 91.628906 214.738281 91.640625 214.632812 91.640625 Z M 214.632812 91.640625 " fill-opacity="1" fill-rule="nonzero"/><path fill="#feffff" d="M 157.605469 67.4375 C 156.636719 70.484375 156.371094 72.617188 156.804688 73.839844 C 157.425781 74.980469 159.191406 76.207031 162.101562 77.527344 C 165.011719 78.851562 166.484375 79.972656 166.523438 80.894531 C 165.878906 81.550781 164.03125 81.398438 160.984375 80.4375 C 157.9375 79.472656 155.804688 79.203125 154.578125 79.632812 C 153.4375 80.253906 152.210938 82.019531 150.890625 84.929688 C 149.566406 87.835938 148.441406 89.308594 147.519531 89.347656 C 146.863281 88.703125 147.015625 86.855469 147.976562 83.8125 C 148.941406 80.769531 149.210938 78.632812 148.78125 77.410156 C 148.160156 76.269531 146.394531 75.042969 143.480469 73.722656 C 140.574219 72.402344 139.101562 71.277344 139.0625 70.359375 C 139.707031 69.699219 141.550781 69.851562 144.601562 70.8125 C 147.644531 71.777344 149.78125 72.046875 151.007812 71.617188 C 152.144531 70.996094 153.375 69.230469 154.695312 66.324219 C 156.019531 63.414062 157.144531 61.941406 158.0625 61.90625 C 158.726562 62.546875 158.574219 64.390625 157.605469 67.4375 Z M 157.605469 67.4375 " fill-opacity="1" fill-rule="nonzero"/><path fill="#feffff" d="M 243.488281 161.738281 L 243.488281 157.417969 L 245.9375 157.417969 L 245.9375 161.738281 L 250.265625 161.738281 L 250.265625 164.195312 L 245.9375 164.195312 L 245.9375 168.507812 L 243.488281 168.507812 L 243.488281 164.195312 L 239.164062 164.195312 L 239.164062 161.738281 Z M 243.488281 161.738281 " fill-opacity="1" fill-rule="nonzero"/><path fill="#feffff" d="M 268.300781 112.363281 C 267.335938 115.410156 267.066406 117.542969 267.5 118.765625 C 268.121094 119.902344 269.890625 121.132812 272.800781 122.453125 C 275.710938 123.777344 277.179688 124.898438 277.21875 125.816406 C 276.574219 126.476562 274.730469 126.324219 271.679688 125.363281 C 268.636719 124.394531 266.5 124.128906 265.273438 124.558594 C 264.136719 125.179688 262.90625 126.945312 261.585938 129.855469 C 260.261719 132.761719 259.136719 134.234375 258.21875 134.273438 C 257.558594 133.628906 257.710938 131.78125 258.671875 128.734375 C 259.640625 125.691406 259.910156 123.558594 259.480469 122.332031 C 258.855469 121.195312 257.089844 119.964844 254.179688 118.648438 C 251.269531 117.324219 249.796875 116.203125 249.757812 115.28125 C 250.402344 114.625 252.25 114.773438 255.296875 115.738281 C 258.34375 116.703125 260.476562 116.972656 261.703125 116.542969 C 262.84375 115.921875 264.070312 114.15625 265.390625 111.246094 C 266.714844 108.339844 267.839844 106.867188 268.761719 106.828125 C 269.421875 107.472656 269.269531 109.316406 268.300781 112.363281 Z M 268.300781 112.363281 " fill-opacity="1" fill-rule="nonzero"/><path fill="#feffff" d="M 162.449219 144.21875 L 162.449219 139.894531 L 164.902344 139.894531 L 164.902344 144.21875 L 169.226562 144.21875 L 169.226562 146.671875 L 164.902344 146.671875 L 164.902344 150.988281 L 162.449219 150.988281 L 162.449219 146.671875 L 158.125 146.671875 L 158.125 144.21875 Z M 162.449219 144.21875 " fill-opacity="1" fill-rule="nonzero"/><path fill="#feffff" d="M 236.207031 198.273438 L 236.207031 193.949219 L 238.660156 193.949219 L 238.660156 198.273438 L 242.984375 198.273438 L 242.984375 200.730469 L 238.660156 200.730469 L 238.660156 205.042969 L 236.207031 205.042969 L 236.207031 200.730469 L 231.882812 200.730469 L 231.882812 198.273438 Z M 236.207031 198.273438 " fill-opacity="1" fill-rule="nonzero"/><g clip-path="url(#d570288e75)"><path fill="#ffd33b" d="M 0.945312 289.703125 L 0.945312 229.59375 C 0.945312 226.402344 2.542969 224.808594 5.730469 224.808594 L 45.167969 224.808594 C 48.359375 224.808594 49.953125 226.402344 49.953125 229.59375 L 49.953125 289.703125 Z M 0.945312 289.703125 " fill-opacity="1" fill-rule="nonzero"/></g><g clip-path="url(#0725a53fd1)"><path fill="#000002" d="M 49.953125 290.535156 L 0.945312 290.535156 C 0.484375 290.535156 0.113281 290.164062 0.113281 289.703125 L 0.113281 229.59375 C 0.113281 225.917969 2.054688 223.972656 5.730469 223.972656 L 45.167969 223.972656 C 48.84375 223.972656 50.785156 225.917969 50.785156 229.59375 L 50.785156 289.703125 C 50.785156 290.160156 50.414062 290.535156 49.953125 290.535156 Z M 1.78125 288.867188 L 49.121094 288.867188 L 49.121094 229.59375 C 49.121094 226.859375 47.902344 225.640625 45.167969 225.640625 L 5.730469 225.640625 C 3 225.640625 1.78125 226.859375 1.78125 229.59375 Z M 1.78125 288.867188 " fill-opacity="1" fill-rule="nonzero"/></g><path fill="#000002" d="M 30.796875 241.644531 C 30.136719 241.644531 29.484375 241.328125 29.085938 240.738281 L 27.324219 238.128906 C 26.6875 237.1875 26.933594 235.90625 27.875 235.265625 C 28.816406 234.628906 30.097656 234.875 30.734375 235.820312 L 32.5 238.429688 C 33.136719 239.371094 32.890625 240.652344 31.949219 241.289062 C 31.59375 241.527344 31.191406 241.644531 30.796875 241.644531 Z M 37.914062 236.816406 C 37.253906 236.816406 36.605469 236.5 36.207031 235.910156 L 34.441406 233.300781 C 33.804688 232.359375 34.050781 231.078125 34.992188 230.441406 C 35.933594 229.800781 37.214844 230.050781 37.851562 230.992188 L 39.617188 233.601562 C 40.253906 234.542969 40.007812 235.824219 39.066406 236.460938 C 38.710938 236.703125 38.3125 236.816406 37.914062 236.816406 Z M 37.914062 236.816406 " fill-opacity="1" fill-rule="nonzero"/><path fill="#000002" d="M 32.5 250.503906 C 32.1875 250.503906 31.886719 250.328125 31.746094 250.023438 C 31.550781 249.605469 31.730469 249.109375 32.148438 248.914062 L 44.128906 243.320312 C 44.546875 243.125 45.042969 243.308594 45.238281 243.722656 C 45.433594 244.140625 45.25 244.636719 44.835938 244.832031 L 32.851562 250.425781 C 32.738281 250.480469 32.617188 250.503906 32.5 250.503906 Z M 32.5 250.503906 " fill-opacity="1" fill-rule="nonzero"/></svg>